<svg width="481.000000" height="226.000000" viewBox="0 0 481 226" fill="none" xmlns="http://www.w3.org/2000/svg" xmlns:xlink="http://www.w3.org/1999/xlink">
	<desc>
			Created with Pixso.
	</desc>
	<defs/>
	<path id="Vector" d="M-0.54 81.79C6.97 -3.57 176.67 1.37 225.5 0.46C278.66 -0.52 480.87 -6.63 480 69.05C480 69.27 480 69.54 480 69.75C479.47 98.28 446.93 121.16 407.89 120.42C393.15 120.15 379.53 116.64 368.28 110.8C360.09 131.75 333.41 146.78 302.1 146.2C300.91 146.2 299.67 146.17 298.48 146.11C298.67 147.88 298.7 149.62 298.67 151.42C297.89 193.54 248.53 226.77 188.45 225.67C128.41 224.57 80.36 189.57 81.13 147.45C81.13 146.69 81.17 145.86 81.26 145.07C34.89 141.83 -3.41 114.31 -0.54 81.82L-0.54 81.79Z" fill="#464E41" fill-opacity="0.400000" fill-rule="nonzero"/>
	<path id="Vector" d="M18.5 81.85C25.39 3.91 180.29 8.43 224.85 7.6C273.34 6.72 457.87 1.16 457.09 70.21C457.09 70.43 457.09 70.64 457.09 70.85C456.59 96.91 426.93 117.74 391.31 117.09C377.88 116.85 365.39 113.64 355.13 108.33C347.69 127.45 323.32 141.19 294.74 140.64C293.62 140.64 292.53 140.58 291.47 140.52C291.66 142.14 291.66 143.75 291.63 145.41C290.88 183.86 245.85 214.15 191.01 213.15C136.2 212.14 92.38 180.16 93.1 141.74C93.1 141.04 93.1 140.27 93.19 139.57C50.88 136.61 15.88 111.5 18.5 81.85Z" fill="#02C27F" fill-opacity="1.000000" fill-rule="nonzero"/>
</svg>
