<svg width="395.000000" height="284.000000" viewBox="0 0 395 284" fill="none" xmlns="http://www.w3.org/2000/svg" xmlns:xlink="http://www.w3.org/1999/xlink">
	<desc>
			Created with Pixso.
	</desc>
	<defs>
		<filter id="filter_1_23_dd" x="-0.999638" y="-0.000061" width="395.591980" height="283.647919" filterUnits="userSpaceOnUse" color-interpolation-filters="sRGB">
			<feFlood flood-opacity="0" result="BackgroundImageFix"/>
			<feColorMatrix in="SourceAlpha" type="matrix" values="0 0 0 0 0 0 0 0 0 0 0 0 0 0 0 0 0 0 127 0" result="hardAlpha"/>
			<feOffset dx="0" dy="4"/>
			<feGaussianBlur stdDeviation="1.33333"/>
			<feComposite in2="hardAlpha" operator="out" k2="-1" k3="1"/>
			<feColorMatrix type="matrix" values="0 0 0 0 0 0 0 0 0 0 0 0 0 0 0 0 0 0 0.25 0"/>
			<feBlend mode="normal" in2="BackgroundImageFix" result="effect_dropShadow_1"/>
			<feBlend mode="normal" in="SourceGraphic" in2="effect_dropShadow_1" result="shape"/>
		</filter>
	</defs>
	<g filter="url(#filter_1_23_dd)">
		<path id="Vector" d="M390.59 142.48C390.59 172.05 369.17 196.06 342.75 196.06C337.01 196.06 331.56 194.91 326.48 192.83C326.51 193.18 326.51 193.55 326.51 193.9C326.51 225.76 303.47 251.53 275.09 251.53C257.93 251.53 242.71 242.12 233.38 227.61C222.96 235.81 210.31 240.62 196.63 240.62C192.04 240.62 187.51 240.05 183.17 239.02C171.33 260.96 149.85 275.64 125.34 275.64C89.8 275.64 60.65 244.86 58.01 205.82L57.32 205.82C27.31 205.8 3 178.51 3 144.85C3 111.2 27.31 83.93 57.32 83.93C66.95 83.93 75.97 86.73 83.8 91.65C83.74 90.35 83.7 89.06 83.7 87.72C83.7 39.26 118.73 -6.11e-5 161.95 -6.11e-5C193.59 -6.11e-5 220.83 21.01 233.16 51.31C242.62 44.95 253.64 41.33 265.44 41.33C294.19 41.33 318.4 62.87 325.93 92.33C331.16 90.09 336.85 88.88 342.77 88.88C369.17 88.88 390.59 112.87 390.59 142.48Z" fill="#02C27F" fill-opacity="1.000000" fill-rule="nonzero"/>
		<path id="Vector" d="M327.5 193.23C332.29 195.06 337.39 196.06 342.75 196.06C369.17 196.06 390.59 172.05 390.59 142.48C390.59 112.87 369.17 88.88 342.77 88.88C337.2 88.88 331.84 89.95 326.86 91.95C326.55 92.07 326.24 92.2 325.93 92.33C325.84 92.01 325.76 91.68 325.67 91.35C317.86 62.4 293.88 41.33 265.44 41.33C253.99 41.33 243.27 44.74 234.01 50.75C233.73 50.93 233.44 51.12 233.16 51.31C233.03 50.99 232.9 50.68 232.77 50.37C220.26 20.58 193.26 -6.11e-5 161.95 -6.11e-5C118.73 -6.11e-5 83.7 39.26 83.7 87.72C83.7 88.64 83.72 89.55 83.75 90.44C83.76 90.85 83.78 91.25 83.8 91.65C83.46 91.44 83.11 91.23 82.77 91.02C75.19 86.49 66.53 83.93 57.32 83.93C27.31 83.93 3 111.2 3 144.85C3 178.51 27.31 205.8 57.32 205.82L58.01 205.82C60.65 244.86 89.8 275.64 125.34 275.64C149.85 275.64 171.33 260.96 183.17 239.02C187.51 240.05 192.04 240.62 196.63 240.62C209.97 240.62 222.32 236.05 232.58 228.22C232.85 228.02 233.12 227.81 233.38 227.61C233.56 227.89 233.74 228.17 233.93 228.45C243.31 242.48 258.26 251.53 275.09 251.53C303.47 251.53 326.51 225.77 326.51 193.92L326.51 193.9C326.51 193.55 326.51 193.18 326.48 192.83C326.82 192.97 327.16 193.1 327.5 193.23ZM357.61 192.5Q350.65 195.06 342.75 195.06Q339.17 195.06 335.69 194.46Q331.19 193.68 326.86 191.9L325.29 191.26L325.48 192.94Q325.51 193.23 325.51 193.9Q325.51 208.18 320.04 219.91Q316.51 227.49 310.7 233.99Q301.97 243.77 291.11 247.77Q283.61 250.53 275.09 250.53Q269.79 250.53 264.76 249.36Q258.04 247.79 251.81 244.14Q249.09 242.56 246.62 240.66Q239.43 235.16 234.22 227.07L233.62 226.14L232.76 226.82Q223.12 234.41 212.2 237.5Q204.71 239.62 196.63 239.62Q190.02 239.62 183.4 238.04L182.66 237.87L182.29 238.54Q175.79 250.58 166.12 258.97Q162.51 262.1 158.46 264.72Q149.5 270.51 139.71 272.92Q132.74 274.64 125.34 274.64Q114.66 274.64 105.16 271.31Q91.38 266.49 80.06 254.68Q72.7 247 67.88 237.97Q60.21 223.58 59 205.75L58.94 204.82L57.32 204.82Q48.32 204.81 40.4 201.89Q28.89 197.66 19.65 187.29Q13.51 180.4 9.78 172.38Q4 159.97 4 144.85Q4 129.73 9.79 117.3Q13.52 109.31 19.65 102.44Q28.88 92.09 40.37 87.86Q48.3 84.93 57.32 84.93Q63.4 84.93 69.12 86.38Q76.5 88.24 83.26 92.5L84.88 93.52L84.8 91.61Q84.7 89.47 84.7 87.72Q84.7 65.88 93.06 47.93Q98.46 36.33 107.36 26.35Q120.72 11.37 137.34 5.24Q148.86 0.99 161.95 0.99Q171.55 0.99 180.49 3.44Q193 6.87 204.2 15.1Q209.96 19.32 214.82 24.4Q225.8 35.87 232.24 51.69L232.7 52.82L233.72 52.14Q242.16 46.47 251.44 44.07Q258.22 42.33 265.44 42.33Q274.11 42.33 282.03 44.76Q293.26 48.21 302.99 56.54Q308.62 61.37 312.98 67.15Q321.26 78.13 324.96 92.58L325.25 93.71L326.32 93.25Q330.15 91.61 334.15 90.77Q338.37 89.88 342.77 89.88Q350.67 89.88 357.63 92.44Q367.72 96.15 375.83 105.24Q381.23 111.29 384.51 118.32Q389.59 129.22 389.59 142.48Q389.59 155.67 384.55 166.53Q381.26 173.61 375.83 179.69Q367.71 188.79 357.61 192.5Z" fill="#000000" fill-opacity="1.000000" fill-rule="evenodd"/>
	</g>
</svg>
