<svg width="454.000000" height="508.000000" viewBox="0 0 454 508" fill="none" xmlns="http://www.w3.org/2000/svg" xmlns:xlink="http://www.w3.org/1999/xlink">
	<desc>
			Created with Pixso.
	</desc>
	<defs/>
	<path id="glass-effect" d="M193 504.49L-0.5 308.99L-0.5 383.99L76 504.49L193 504.49Z" fill="#C4C4C4" fill-opacity="0.100000" fill-rule="evenodd"/>
	<path id="glass-effect" d="M453.5 299L216 0L373.5 0L453.5 132.99L453.5 299Z" fill="#C4C4C4" fill-opacity="0.200000" fill-rule="evenodd"/>
	<path id="glass-effect" d="M216 504.5L39 504.5L-0.5 132.99L76 0L146 299L216 504.5Z" fill="#FFFFFF" fill-opacity="0.150000" fill-rule="evenodd"/>
	<path id="glass-effect" d="M453.5 445L168.12 0L325.62 0L453.5 383.99L453.5 445Z" fill="#FFFFFF" fill-opacity="0.150000" fill-rule="evenodd"/>
	<path id="glass-effect" d="M-0.5 214L245.19 0L300.94 0L134.51 504.5L-0.5 214Z" fill="#EAFFEB" fill-opacity="0.200000" fill-rule="evenodd"/>
	<path id="glass-effect" d="M181.5 228.5L21 0L382.29 2.75L453.5 504.49L215.86 507.25L181.5 228.5Z" fill="#34A853" fill-opacity="0.100571" fill-rule="evenodd"/>
</svg>