<svg width="24.000000" height="24.000000" viewBox="0 0 24 24" fill="none" xmlns="http://www.w3.org/2000/svg" xmlns:xlink="http://www.w3.org/1999/xlink">
	<desc>
			Created with Pixso.
	</desc>
	<defs>
		<clipPath id="clip1_519">
			<rect id="svg" width="24.000000" height="24.000000" fill="white" fill-opacity="0"/>
		</clipPath>
	</defs>
	<g clip-path="url(#clip1_519)">
		<path id="Vector" d="M13.73 1.22L14.31 2.85C14.39 3.09 14.53 3.31 14.71 3.5C14.88 3.68 15.1 3.83 15.34 3.93C15.57 4.03 15.83 4.07 16.09 4.07C16.34 4.06 16.6 4 16.83 3.89L18.39 3.15C19.95 2.41 21.58 4.04 20.84 5.6L20.1 7.16C19.99 7.39 19.93 7.65 19.92 7.9C19.92 8.16 19.96 8.42 20.06 8.65C20.16 8.89 20.31 9.11 20.49 9.28C20.68 9.46 20.9 9.6 21.15 9.68L22.77 10.26C24.4 10.84 24.4 13.15 22.77 13.73L21.15 14.31C20.9 14.39 20.68 14.53 20.49 14.71C20.31 14.88 20.16 15.1 20.06 15.34C19.96 15.57 19.92 15.83 19.92 16.09C19.93 16.34 19.99 16.6 20.1 16.83L20.84 18.39C21.58 19.95 19.95 21.58 18.39 20.84L16.83 20.1C16.6 19.99 16.34 19.93 16.09 19.92C15.83 19.92 15.57 19.96 15.34 20.06C15.1 20.16 14.88 20.31 14.71 20.49C14.53 20.68 14.39 20.9 14.31 21.14L13.73 22.77C13.15 24.4 10.84 24.4 10.26 22.77L9.68 21.14C9.6 20.9 9.46 20.68 9.28 20.49C9.11 20.31 8.89 20.16 8.65 20.06C8.42 19.96 8.16 19.92 7.9 19.92C7.65 19.93 7.39 19.99 7.16 20.1L5.6 20.84C4.04 21.58 2.41 19.95 3.15 18.39L3.89 16.83C4 16.6 4.06 16.34 4.07 16.09C4.07 15.83 4.03 15.57 3.93 15.34C3.83 15.1 3.68 14.88 3.5 14.71C3.31 14.53 3.09 14.39 2.84 14.31L1.22 13.73C-0.41 13.15 -0.41 10.84 1.22 10.26L2.84 9.68C3.09 9.6 3.31 9.46 3.5 9.28C3.68 9.11 3.83 8.89 3.93 8.65C4.03 8.42 4.08 8.16 4.07 7.9C4.06 7.64 4 7.39 3.89 7.16L3.15 5.6C2.41 4.04 4.04 2.4 5.6 3.15L7.16 3.89C7.4 4 7.65 4.06 7.91 4.07C8.16 4.07 8.42 4.03 8.66 3.93C8.89 3.83 9.11 3.68 9.29 3.5C9.46 3.31 9.6 3.09 9.68 2.85L10.26 1.22C10.84 -0.41 13.15 -0.41 13.73 1.22L13.73 1.22Z" fill="#D7FC64" fill-opacity="1.000000" fill-rule="nonzero"/>
	</g>
</svg>
